{"title":"Stonehearst.Asylum.2014.720p.BRRip.x264.AC3-WiNTeaM","uid":11656281,"size":2949690416,"categoryP":"video","categoryS":"hd___movies","magnet":"?xt=urn:btih:c6ad1b1a5022ef970c68d029499b36c416482401&amp;dn=Stonehearst.Asylum.2014.720p.BRRip.x264.AC3-WiNTeaM&amp;tr=udp%3A%2F%2Ftracker.openbittorrent.com%3A80&amp;tr=udp%3A%2F%2Fopen.demonii.com%3A1337&amp;tr=udp%3A%2F%2Ftracker.coppersurfer.tk%3A6969&amp;tr=udp%3A%2F%2Fexodus.desync.com%3A6969","seeders":0,"leechers":1,"uploader":"TvTeam","files":14,"time":1417928775,"description":" &lt;a href=&quot;https://www.torrenting.com&quot; rel=&quot;nofollow&quot; target=&quot;_NEW&quot;&gt;https://www.torrenting.com&lt;/a&gt;\n\nSign up is OPEN - for time being. Come and have fun.\n    __          ___ _   _ _______         __  __ \n             / (_)  | |__   __|       |  /  |\n        /  / / _|  | |  | | ___  __ _|   / |\n       /  / / | | . ` |  | |/ _ / _` | |/| |\n         /  /  | | |  |  | |  __/ (_| | |  | |\n        /  /   |_|_| _|  |_|___|__,_|_|  |_|      \n                                       since 2013\n    _____________________________________________\n    Proudly Presents:\n\nStonehearst.Asylum.2014.720p.BRRip.x264.AC3-WiNTeaM\n\nFormat                                   : Matroska\nFormat version                           : Version 4 / Version 2\nFile size                                : 2.71 GiB\nDuration                                 : 1h 52mn\nOverall bit rate                         : 3 443 Kbps\nMovie name                               : Stonehearst.Asylum.2014.720p.BRRip.x264.AC3-WiNTeaM\nEncoded date                             : UTC 2014-12-05 19:36:13\nWriting application                      : mkvmerge v7.3.0 ('Nouages') 64bit built on Oct 22 2014 18:53:34\nWriting library                          : libebml v1.3.0 + libmatroska v1.4.1\nRipped by                                : Mikas@WiNTeaM\nVideo Source                             : Stonehearst.Asylum.2014.1080p.BluRay.x264-ROVERS\n_STATISTICS_WRITING_APP                  : mkvmerge v7.3.0 ('Nouages') 64bit built on Oct 22 2014 18:53:34\n_STATISTICS_WRITING_DATE_UTC             : 2014-12-05 19:36:13\n_STATISTICS_TAGS                         : BPS DURATION NUMBER_OF_FRAMES NUMBER_OF_BYTES\nDURATION                                 : 01:47:53.592000000\nNUMBER_OF_FRAMES                         : 1471\nNUMBER_OF_BYTES                          : 46981\n\nVideo\nID                                       : 1\nFormat                                   : AVC\nFormat/Info                              : Advanced Video Codec\nFormat profile                           : &lt;a class=&quot;__cf_email__&quot; href=&quot;/cdn-cgi/l/email-protection&quot; data-cfemail=&quot;5810313f3018146c7669&quot;&gt;[email&amp;#160;protected]&lt;/a&gt;&lt;script cf-hash='f9e31' type=&quot;text/javascript&quot;&gt;\n/* &lt;![CDATA[ */!function(){try{var t=&quot;currentScript&quot;in document?document.currentScript:function(){for(var t=document.getElementsByTagName(&quot;script&quot;),e=t.length;e--;)if(t[e].getAttribute(&quot;cf-hash&quot;))return t[e]}();if(t&amp;&amp;t.previousSibling){var e,r,n,i,c=t.previousSibling,a=c.getAttribute(&quot;data-cfemail&quot;);if(a){for(e=&quot;&quot;,r=parseInt(a.substr(0,2),16),n=2;a.length-n;n+=2)i=parseInt(a.substr(n,2),16)^r,e+=String.fromCharCode(i);e=document.createTextNode(e),c.parentNode.replaceChild(e,c)}}}catch(u){}}();/* ]]&gt; */&lt;/script&gt;\nFormat settings, CABAC                   : Yes\nFormat settings, ReFrames                : 12 frames\nCodec ID                                 : V_MPEG4/ISO/AVC\nDuration                                 : 1h 52mn\nBit rate                                 : 2 995 Kbps\nWidth                                    : 1 280 pixels\nHeight                                   : 534 pixels\nDisplay aspect ratio                     : 2.40:1\nFrame rate mode                          : Constant\nFrame rate                               : 23.976 fps\nColor space                              : YUV\nChroma subsampling                       : 4:2:0\nBit depth                                : 8 bits\nScan type                                : Progressive\nBits/(Pixel*Frame)                       : 0.183\nStream size                              : 2.30 GiB (85%)\nWriting library                          : x264 core 142 r2491 24e4fed\nEncoding settings                        : cabac=1 / ref=12 / deblock=1:-3:-3 / analyse=0x3:0x133 / me=umh / subme=10 / psy=1 / psy_rd=1.00:0.07 / mixed_ref=1 / me_range=64 / chroma_me=1 / trellis=2 / 8x8dct=1 / cqm=0 / deadzone=21,11 / fast_pskip=1 / chroma_qp_offset=-3 / threads=12 / lookahead_threads=3 / sliced_threads=0 / nr=0 / decimate=1 / interlaced=0 / bluray_compat=0 / constrained_intra=0 / bframes=13 / b_pyramid=2 / b_adapt=2 / b_bias=0 / direct=3 / weightb=1 / open_gop=0 / weightp=2 / keyint=240 / keyint_min=23 / scenecut=40 / intra_refresh=0 / rc_lookahead=240 / rc=2pass / mbtree=1 / bitrate=2995 / ratetol=1.0 / qcomp=0.60 / qpmin=0 / qpmax=69 / qpstep=4 / cplxblur=20.0 / qblur=0.5 / vbv_maxrate=40000 / vbv_bufsize=30000 / nal_hrd=none / filler=0 / ip_ratio=1.30 / aq=1:1.00\nDefault                                  : Yes\nForced                                   : No\nColor primaries                          : BT.709\nTransfer characteristics                 : BT.709\nMatrix coefficients                      : BT.709\nColor range                              : Limited\n\nAudio\nID                                       : 2\nFormat                                   : AC-3\nFormat/Info                              : Audio Coding 3\nMode extension                           : CM (complete main)\nFormat settings, Endianness              : Big\nCodec ID                                 : A_AC3\nDuration                                 : 1h 52mn\nBit rate mode                            : Constant\nBit rate                                 : 448 Kbps\nChannel(s)                               : 6 channels\nChannel positions                        : Front: L C R, Side: L R, LFE\nSampling rate                            : 48.0 KHz\nBit depth                                : 16 bits\nCompression mode                         : Lossy\nStream size                              : 361 MiB (13%)\nTitle                                    : English\nLanguage                                 : English\nDefault                                  : Yes\nForced                                   : No\n\nText\nID                                       : 3\nFormat                                   : UTF-8\nCodec ID                                 : S_TEXT/UTF8\nCodec ID/Info                            : UTF-8 Plain Text\nTitle                                    : English\nLanguage                                 : English\nDefault                                  : No\nForced                                   : No\n\nMenu\n00:00:00.000                             : en:00:00:00.000\n00:09:14.888                             : en:00:09:14.888\n00:17:51.362                             : en:00:17:51.362\n00:27:37.906                             : en:00:27:37.906\n00:37:54.731                             : en:00:37:54.731\n00:45:40.696                             : en:00:45:40.696\n00:54:59.922                             : en:00:54:59.922\n01:03:44.029                             : en:01:03:44.029\n01:12:48.406                             : en:01:12:48.406\n01:22:12.427                             : en:01:22:12.427\n01:30:24.252                             : en:01:30:24.252\n01:48:23.122                             : en:01:48:23.122\n    ...................................................................\n\n    Ripper Notes.........: Thanks to ROVERS\n\n                           Seed, Share, but don't forget to keep the credits ;) \n                               \n                           Respect our work\n\n    Group Notes..........: We are currently Looking for Portuguese Android Modders.\n                           If you are interested, please contact us @ winteam [@] inbox [dot] com\n\n                           Neste momento procuramos Android Modders Portugueses.\n                           Pedimos aos interessados que nos contactem atraves do mail:  winteam [@] inbox [dot] com\n\n    ...................................................................\n\n    Group Greets.........: FLAWL3SS * ViSiON * D-ZON3 * CHD * DAA\n                           AMIABLE * DIAMOND * FraMeSToR * LEGiON\n                           CORE * KRaLiMaRKo * iNViNCiBLE * SPARKS\n\n    ___________________________________________________________________\n\n                     *** WiNTeaM  / Since 2013 ***","torrent":{"xt":"urn:btih:c6ad1b1a5022ef970c68d029499b36c416482401","amp;dn":"Stonehearst.Asylum.2014.720p.BRRip.x264.AC3-WiNTeaM","amp;tr":["udp%3A%2F%2Ftracker.openbittorrent.com%3A80","udp%3A%2F%2Fopen.demonii.com%3A1337","udp%3A%2F%2Ftracker.coppersurfer.tk%3A6969","udp%3A%2F%2Fexodus.desync.com%3A6969"],"infoHash":"c6ad1b1a5022ef970c68d029499b36c416482401","infoHashBuffer":{"type":"Buffer","data":[198,173,27,26,80,34,239,151,12,104,208,41,73,155,54,196,22,72,36,1]},"announce":[],"urlList":[]}}